STARTFONT 2.1
COMMENT GENERATED BY "bin2bdf 1.0"
COMMENT AUTHOR mleisher@nmsu.edu (Mark Leisher)
COMMENT DATE Mon Dec  7 15:09:04 1998
COMMENT ---------------------------
FONT vga5128
SIZE 8 100 100
FONTBOUNDINGBOX 8 8 0 -2
STARTPROPERTIES 4
COPYRIGHT "Public Domain"
DEFAULT_CHAR 41377
FONT_ASCENT 6
FONT_DESCENT 2
ENDPROPERTIES
CHARS 257
STARTCHAR a1a1
ENCODING 41377
SWIDTH 903 0
DWIDTH 8 0
BBX 8 16 0 -2
BITMAP
00
00
00
00
00
00
00
00
00
00
00
00
00
00
00
00
ENDCHAR
STARTCHAR a1a2
ENCODING 41378
SWIDTH 903 0
DWIDTH 8 0
BBX 8 16 0 -2
BITMAP
00
18
18
18
18
7e
db
db
db
db
db
db
db
00
00
00
ENDCHAR
STARTCHAR a1a3
ENCODING 41379
SWIDTH 903 0
DWIDTH 8 0
BBX 8 16 0 -2
BITMAP
00
30
30
30
30
78
d4
d4
d4
d7
d5
d4
d4
00
00
00
ENDCHAR
STARTCHAR a1a4
ENCODING 41380
SWIDTH 903 0
DWIDTH 8 0
BBX 8 16 0 -2
BITMAP
00
30
30
30
30
78
b4
b4
b4
b4
b4
b7
03
00
00
00
ENDCHAR
STARTCHAR a1a5
ENCODING 41381
SWIDTH 903 0
DWIDTH 8 0
BBX 8 16 0 -2
BITMAP
00
18
18
18
7e
db
db
db
db
db
03
03
03
00
00
00
ENDCHAR
STARTCHAR a1a6
ENCODING 41382
SWIDTH 903 0
DWIDTH 8 0
BBX 8 16 0 -2
BITMAP
00
30
30
30
30
78
b4
b4
b4
b4
b7
b5
b7
00
00
00
ENDCHAR
STARTCHAR a1a7
ENCODING 41383
SWIDTH 903 0
DWIDTH 8 0
BBX 8 16 0 -2
BITMAP
00
60
60
60
78
18
7e
db
db
db
db
db
db
db
00
00
ENDCHAR
STARTCHAR a1a8
ENCODING 41384
SWIDTH 903 0
DWIDTH 8 0
BBX 8 16 0 -2
BITMAP
00
18
18
18
7e
db
db
db
db
db
db
c0
c0
c0
00
00
ENDCHAR
STARTCHAR a1a9
ENCODING 41385
SWIDTH 903 0
DWIDTH 8 0
BBX 8 16 0 -2
BITMAP
00
30
30
78
cc
cc
cc
78
30
78
cc
cc
cc
00
00
00
ENDCHAR
STARTCHAR a1aa
ENCODING 41386
SWIDTH 903 0
DWIDTH 8 0
BBX 8 16 0 -2
BITMAP
00
30
30
78
cc
cc
cc
78
30
78
cf
cd
cc
00
00
00
ENDCHAR
STARTCHAR a1ab
ENCODING 41387
SWIDTH 903 0
DWIDTH 8 0
BBX 8 16 0 -2
BITMAP
00
db
db
db
db
db
db
db
db
db
db
7e
00
00
00
00
ENDCHAR
STARTCHAR a1ac
ENCODING 41388
SWIDTH 903 0
DWIDTH 8 0
BBX 8 16 0 -2
BITMAP
00
b4
b4
b4
b4
b4
b7
b5
b4
b4
b4
78
00
00
00
00
ENDCHAR
STARTCHAR a1ad
ENCODING 41389
SWIDTH 903 0
DWIDTH 8 0
BBX 8 16 0 -2
BITMAP
00
b4
b4
b4
b4
b4
7c
0c
0c
0c
0c
0f
03
00
00
00
ENDCHAR
STARTCHAR a1ae
ENCODING 41390
SWIDTH 903 0
DWIDTH 8 0
BBX 8 16 0 -2
BITMAP
00
db
db
db
db
7f
03
03
03
03
03
03
03
00
00
00
ENDCHAR
STARTCHAR a1af
ENCODING 41391
SWIDTH 903 0
DWIDTH 8 0
BBX 8 16 0 -2
BITMAP
00
b4
b4
b4
b4
b4
7c
0c
0c
0c
0f
0d
0f
00
00
00
ENDCHAR
STARTCHAR a1b0
ENCODING 41392
SWIDTH 903 0
DWIDTH 8 0
BBX 8 16 0 -2
BITMAP
00
15
15
15
15
15
1e
10
10
20
20
80
80
00
00
00
ENDCHAR
STARTCHAR a1b1
ENCODING 41393
SWIDTH 903 0
DWIDTH 8 0
BBX 8 16 0 -2
BITMAP
00
db
db
db
db
7e
18
30
30
60
60
c0
c0
00
00
00
ENDCHAR
STARTCHAR a1b2
ENCODING 41394
SWIDTH 903 0
DWIDTH 8 0
BBX 8 16 0 -2
BITMAP
84
fc
00
78
cc
cc
cc
cc
cc
cc
cc
cc
cc
00
00
00
ENDCHAR
STARTCHAR a1b3
ENCODING 41395
SWIDTH 903 0
DWIDTH 8 0
BBX 8 16 0 -2
BITMAP
84
fc
00
78
cc
cc
cc
cf
cd
cc
cc
cc
cc
00
00
00
ENDCHAR
STARTCHAR a1b4
ENCODING 41396
SWIDTH 903 0
DWIDTH 8 0
BBX 8 16 0 -2
BITMAP
84
fc
00
78
cc
cc
cc
cc
cc
cc
cc
cf
03
00
00
00
ENDCHAR
STARTCHAR a1b5
ENCODING 41397
SWIDTH 903 0
DWIDTH 8 0
BBX 8 16 0 -2
BITMAP
00
84
fc
00
78
cc
cc
cc
cc
cc
0c
0c
0c
00
00
00
ENDCHAR
STARTCHAR a1b6
ENCODING 41398
SWIDTH 903 0
DWIDTH 8 0
BBX 8 16 0 -2
BITMAP
00
18
18
f8
18
1e
06
06
06
06
06
06
06
00
00
00
ENDCHAR
STARTCHAR a1b7
ENCODING 41399
SWIDTH 903 0
DWIDTH 8 0
BBX 8 16 0 -2
BITMAP
00
18
18
f8
18
1e
06
06
06
06
06
fc
80
00
00
00
ENDCHAR
STARTCHAR a1b8
ENCODING 41400
SWIDTH 903 0
DWIDTH 8 0
BBX 8 16 0 -2
BITMAP
00
0c
3c
6c
4c
0f
03
03
03
03
03
03
03
00
00
00
ENDCHAR
STARTCHAR a1b9
ENCODING 41401
SWIDTH 903 0
DWIDTH 8 0
BBX 8 16 0 -2
BITMAP
fc
b4
30
30
1e
13
33
33
33
33
33
33
33
00
00
00
ENDCHAR
STARTCHAR a1ba
ENCODING 41402
SWIDTH 903 0
DWIDTH 8 0
BBX 8 16 0 -2
BITMAP
1c
6a
aa
aa
aa
aa
ae
a2
42
02
02
0f
01
00
00
00
ENDCHAR
STARTCHAR a1bb
ENCODING 41403
SWIDTH 903 0
DWIDTH 8 0
BBX 8 16 0 -2
BITMAP
00
42
7e
18
30
30
60
60
c7
cd
cc
cc
78
00
00
00
ENDCHAR
STARTCHAR a1bc
ENCODING 41404
SWIDTH 903 0
DWIDTH 8 0
BBX 8 16 0 -2
BITMAP
00
30
30
30
78
cc
cc
cc
cc
cc
0c
0c
3f
21
00
00
ENDCHAR
STARTCHAR a1bd
ENCODING 41405
SWIDTH 903 0
DWIDTH 8 0
BBX 8 16 0 -2
BITMAP
00
00
fc
b4
30
78
cc
cc
cc
0c
0c
3f
21
00
00
00
ENDCHAR
STARTCHAR a1be
ENCODING 41406
SWIDTH 903 0
DWIDTH 8 0
BBX 8 16 0 -2
BITMAP
00
78
cc
cc
cc
78
30
78
cc
cc
0c
3f
21
00
00
00
ENDCHAR
STARTCHAR a1bf
ENCODING 41407
SWIDTH 903 0
DWIDTH 8 0
BBX 8 16 0 -2
BITMAP
00
00
38
68
a8
a8
a8
a8
a8
08
08
3c
24
00
00
00
ENDCHAR
STARTCHAR a1c0
ENCODING 41408
SWIDTH 903 0
DWIDTH 8 0
BBX 8 16 0 -2
BITMAP
c6
fe
30
78
cc
cc
f8
60
3c
cc
cc
0c
7e
42
00
00
ENDCHAR
STARTCHAR a1c1
ENCODING 41409
SWIDTH 903 0
DWIDTH 8 0
BBX 8 16 0 -2
BITMAP
00
00
00
00
00
00
00
00
00
00
00
00
00
00
00
00
ENDCHAR
STARTCHAR a1c2
ENCODING 41410
SWIDTH 903 0
DWIDTH 8 0
BBX 8 16 0 -2
BITMAP
00
00
00
7c
92
92
92
92
92
92
dd
da
00
00
00
00
ENDCHAR
STARTCHAR a1c3
ENCODING 41411
SWIDTH 903 0
DWIDTH 8 0
BBX 8 16 0 -2
BITMAP
00
38
6c
cc
cc
cc
f8
60
7e
36
37
37
30
00
00
00
ENDCHAR
STARTCHAR a1c4
ENCODING 41412
SWIDTH 903 0
DWIDTH 8 0
BBX 8 16 0 -2
BITMAP
00
0c
cc
cc
cc
cc
cc
cc
cc
cc
cc
7c
38
00
00
00
ENDCHAR
STARTCHAR a1c5
ENCODING 41413
SWIDTH 903 0
DWIDTH 8 0
BBX 8 16 0 -2
BITMAP
00
0c
cc
cc
cc
cf
cf
cc
cc
cc
cc
7c
38
00
00
00
ENDCHAR
STARTCHAR a1c6
ENCODING 41414
SWIDTH 903 0
DWIDTH 8 0
BBX 8 16 0 -2
BITMAP
00
00
fc
b4
30
78
cc
cc
cc
cc
cf
c9
cf
00
00
00
ENDCHAR
STARTCHAR a1c7
ENCODING 41415
SWIDTH 903 0
DWIDTH 8 0
BBX 8 16 0 -2
BITMAP
00
0c
cc
cc
cc
cc
7c
0c
08
18
18
30
3e
06
00
00
ENDCHAR
STARTCHAR a1c8
ENCODING 41416
SWIDTH 903 0
DWIDTH 8 0
BBX 8 16 0 -2
BITMAP
00
0c
cc
cc
cc
cc
7c
0c
18
18
36
26
36
1c
00
00
ENDCHAR
STARTCHAR a1c9
ENCODING 41417
SWIDTH 903 0
DWIDTH 8 0
BBX 8 16 0 -2
BITMAP
00
18
7c
6c
cc
cc
cc
cc
cc
cc
cc
d8
70
00
00
00
ENDCHAR
STARTCHAR a1ca
ENCODING 41418
SWIDTH 903 0
DWIDTH 8 0
BBX 8 16 0 -2
BITMAP
00
18
7c
6c
cc
cc
cc
cf
cd
cc
cc
d8
70
00
00
00
ENDCHAR
STARTCHAR a1cb
ENCODING 41419
SWIDTH 903 0
DWIDTH 8 0
BBX 8 16 0 -2
BITMAP
00
78
cc
cc
cc
cc
7c
0c
18
18
30
3e
06
00
00
00
ENDCHAR
STARTCHAR a1cc
ENCODING 41420
SWIDTH 903 0
DWIDTH 8 0
BBX 8 16 0 -2
BITMAP
00
78
cc
cc
cc
cc
7c
0c
18
18
18
18
18
00
00
00
ENDCHAR
STARTCHAR a1cd
ENCODING 41421
SWIDTH 903 0
DWIDTH 8 0
BBX 8 16 0 -2
BITMAP
00
00
7e
7e
00
00
18
18
00
18
18
00
00
00
00
00
ENDCHAR
STARTCHAR a1ce
ENCODING 41422
SWIDTH 903 0
DWIDTH 8 0
BBX 8 16 0 -2
BITMAP
00
78
cc
cc
cc
cc
7c
0c
18
30
3e
36
3e
00
00
00
ENDCHAR
STARTCHAR a1cf
ENCODING 41423
SWIDTH 903 0
DWIDTH 8 0
BBX 8 16 0 -2
BITMAP
00
30
30
30
78
6c
cc
cc
cc
cc
cc
d8
70
00
00
00
ENDCHAR
STARTCHAR a1d0
ENCODING 41424
SWIDTH 903 0
DWIDTH 8 0
BBX 8 16 0 -2
BITMAP
00
78
cc
cc
cc
cc
7c
18
30
60
c0
c0
c0
00
00
00
ENDCHAR
STARTCHAR a1d1
ENCODING 41425
SWIDTH 903 0
DWIDTH 8 0
BBX 8 16 0 -2
BITMAP
00
00
78
cc
cc
cc
78
30
78
cc
cc
cc
cc
00
00
00
ENDCHAR
STARTCHAR a1d2
ENCODING 41426
SWIDTH 903 0
DWIDTH 8 0
BBX 8 16 0 -2
BITMAP
00
00
78
cc
cc
cc
78
30
78
cc
cf
cd
cc
00
00
00
ENDCHAR
STARTCHAR a1d3
ENCODING 41427
SWIDTH 903 0
DWIDTH 8 0
BBX 8 16 0 -2
BITMAP
00
00
78
cc
cc
cc
78
30
78
cc
cc
cc
cf
00
00
00
ENDCHAR
STARTCHAR a1d4
ENCODING 41428
SWIDTH 903 0
DWIDTH 8 0
BBX 8 16 0 -2
BITMAP
00
00
78
cc
cc
cc
78
30
78
cc
cc
0c
0c
00
00
00
ENDCHAR
STARTCHAR a1d5
ENCODING 41429
SWIDTH 903 0
DWIDTH 8 0
BBX 8 16 0 -2
BITMAP
00
00
78
cc
cc
cc
78
30
78
cf
cd
cf
00
00
00
00
ENDCHAR
STARTCHAR a1d6
ENCODING 41430
SWIDTH 903 0
DWIDTH 8 0
BBX 8 16 0 -2
BITMAP
00
00
78
cc
cf
cc
78
30
78
cc
cc
cc
cc
00
00
00
ENDCHAR
STARTCHAR a1d7
ENCODING 41431
SWIDTH 903 0
DWIDTH 8 0
BBX 8 16 0 -2
BITMAP
00
00
78
cc
cc
cc
78
30
78
cc
cc
c0
c0
00
00
00
ENDCHAR
STARTCHAR a1d8
ENCODING 41432
SWIDTH 903 0
DWIDTH 8 0
BBX 8 16 0 -2
BITMAP
00
81
7e
18
18
7e
db
db
db
7e
18
18
18
00
00
00
ENDCHAR
STARTCHAR a1d9
ENCODING 41433
SWIDTH 903 0
DWIDTH 8 0
BBX 8 16 0 -2
BITMAP
00
81
7e
18
18
7e
db
db
db
7e
18
1f
1b
18
00
00
ENDCHAR
STARTCHAR a1da
ENCODING 41434
SWIDTH 903 0
DWIDTH 8 0
BBX 8 16 0 -2
BITMAP
00
81
7e
18
18
7e
db
db
db
7e
18
0f
03
00
00
00
ENDCHAR
STARTCHAR a1db
ENCODING 41435
SWIDTH 903 0
DWIDTH 8 0
BBX 8 16 0 -2
BITMAP
00
00
00
00
66
66
00
00
66
66
00
00
00
00
00
00
ENDCHAR
STARTCHAR a1dc
ENCODING 41436
SWIDTH 903 0
DWIDTH 8 0
BBX 8 16 0 -2
BITMAP
00
06
c6
c6
c6
66
66
66
66
66
66
3e
1c
00
00
00
ENDCHAR
STARTCHAR a1dd
ENCODING 41437
SWIDTH 903 0
DWIDTH 8 0
BBX 8 16 0 -2
BITMAP
00
81
7e
18
18
7e
db
db
db
7e
18
30
e0
c0
00
00
ENDCHAR
STARTCHAR a1de
ENCODING 41438
SWIDTH 903 0
DWIDTH 8 0
BBX 8 16 0 -2
BITMAP
00
81
7e
18
18
7e
db
db
db
7e
18
1e
1b
0e
00
00
ENDCHAR
STARTCHAR a1df
ENCODING 41439
SWIDTH 903 0
DWIDTH 8 0
BBX 8 16 0 -2
BITMAP
00
90
60
60
78
18
7e
db
db
db
7e
18
18
18
00
00
ENDCHAR
STARTCHAR a1e0
ENCODING 41440
SWIDTH 903 0
DWIDTH 8 0
BBX 8 16 0 -2
BITMAP
00
24
18
24
24
18
7e
db
db
db
7e
18
18
18
00
00
ENDCHAR
STARTCHAR a1e1
ENCODING 41441
SWIDTH 903 0
DWIDTH 8 0
BBX 8 16 0 -2
BITMAP
00
07
cd
cd
cf
cc
cc
cc
cc
cc
cc
7c
38
00
00
00
ENDCHAR
STARTCHAR a1e2
ENCODING 41442
SWIDTH 903 0
DWIDTH 8 0
BBX 8 16 0 -2
BITMAP
00
20
20
60
b8
ac
06
06
06
0c
7e
c3
c3
00
00
00
ENDCHAR
STARTCHAR a1e3
ENCODING 41443
SWIDTH 903 0
DWIDTH 8 0
BBX 8 16 0 -2
BITMAP
00
30
30
60
60
f8
cc
cc
cc
cc
cc
cc
cc
00
00
00
ENDCHAR
STARTCHAR a1e4
ENCODING 41444
SWIDTH 903 0
DWIDTH 8 0
BBX 8 16 0 -2
BITMAP
00
30
30
60
60
f8
cc
cc
cf
cd
cc
cc
cc
00
00
00
ENDCHAR
STARTCHAR a1e5
ENCODING 41445
SWIDTH 903 0
DWIDTH 8 0
BBX 8 16 0 -2
BITMAP
00
30
30
60
60
f8
cc
cc
cc
cc
cc
cc
cf
03
00
00
ENDCHAR
STARTCHAR a1e6
ENCODING 41446
SWIDTH 903 0
DWIDTH 8 0
BBX 8 16 0 -2
BITMAP
00
30
30
60
60
f8
cc
cc
cc
cc
0c
0c
0c
00
00
00
ENDCHAR
STARTCHAR a1e7
ENCODING 41447
SWIDTH 903 0
DWIDTH 8 0
BBX 8 16 0 -2
BITMAP
00
30
30
60
60
f8
cc
cc
cc
ce
cd
cd
cf
00
00
00
ENDCHAR
STARTCHAR a1e8
ENCODING 41448
SWIDTH 903 0
DWIDTH 8 0
BBX 8 16 0 -2
BITMAP
00
00
30
30
70
78
cc
c4
c6
e6
d6
d6
66
00
00
00
ENDCHAR
STARTCHAR a1e9
ENCODING 41449
SWIDTH 903 0
DWIDTH 8 0
BBX 8 16 0 -2
BITMAP
00
30
30
60
60
f0
d8
df
dd
df
d8
d8
d8
00
00
00
ENDCHAR
STARTCHAR a1ea
ENCODING 41450
SWIDTH 903 0
DWIDTH 8 0
BBX 8 16 0 -2
BITMAP
00
30
30
60
60
f8
cc
cc
cc
cc
0c
0c
33
33
00
00
ENDCHAR
STARTCHAR a1eb
ENCODING 41451
SWIDTH 903 0
DWIDTH 8 0
BBX 8 16 0 -2
BITMAP
00
00
1c
6a
aa
aa
aa
aa
aa
aa
aa
a4
40
00
00
00
ENDCHAR
STARTCHAR a1ec
ENCODING 41452
SWIDTH 903 0
DWIDTH 8 0
BBX 8 16 0 -2
BITMAP
00
00
1c
6a
aa
aa
ab
aa
aa
aa
aa
a4
40
00
00
00
ENDCHAR
STARTCHAR a1ed
ENCODING 41453
SWIDTH 903 0
DWIDTH 8 0
BBX 8 16 0 -2
BITMAP
00
1c
6a
aa
aa
aa
aa
ae
a2
42
02
03
01
00
00
00
ENDCHAR
STARTCHAR a1ee
ENCODING 41454
SWIDTH 903 0
DWIDTH 8 0
BBX 8 16 0 -2
BITMAP
00
1c
6a
aa
aa
aa
aa
ae
a2
42
02
02
02
00
00
00
ENDCHAR
STARTCHAR a1ef
ENCODING 41455
SWIDTH 903 0
DWIDTH 8 0
BBX 8 16 0 -2
BITMAP
00
1c
6a
aa
aa
aa
aa
ae
a2
42
03
03
03
00
00
00
ENDCHAR
STARTCHAR a1f0
ENCODING 41456
SWIDTH 903 0
DWIDTH 8 0
BBX 8 16 0 -2
BITMAP
00
1c
6a
aa
aa
aa
aa
a4
e0
20
20
40
40
00
00
00
ENDCHAR
STARTCHAR a1f1
ENCODING 41457
SWIDTH 903 0
DWIDTH 8 0
BBX 8 16 0 -2
BITMAP
00
1c
6a
aa
aa
aa
aa
a4
e0
20
20
20
20
00
00
00
ENDCHAR
STARTCHAR a1f2
ENCODING 41458
SWIDTH 903 0
DWIDTH 8 0
BBX 8 16 0 -2
BITMAP
00
30
30
30
7c
cc
cc
cc
cc
cc
cc
cc
cc
00
00
00
ENDCHAR
STARTCHAR a1f3
ENCODING 41459
SWIDTH 903 0
DWIDTH 8 0
BBX 8 16 0 -2
BITMAP
00
30
30
30
7c
cc
cc
cf
cf
cc
cc
cc
cc
00
00
00
ENDCHAR
STARTCHAR a1f4
ENCODING 41460
SWIDTH 903 0
DWIDTH 8 0
BBX 8 16 0 -2
BITMAP
00
30
30
30
7c
cc
cc
cc
cc
cc
cc
cc
cf
03
00
00
ENDCHAR
STARTCHAR a1f5
ENCODING 41461
SWIDTH 903 0
DWIDTH 8 0
BBX 8 16 0 -2
BITMAP
00
30
30
30
7c
cc
cc
cc
cc
cc
0c
0c
0c
00
00
00
ENDCHAR
STARTCHAR a1f6
ENCODING 41462
SWIDTH 903 0
DWIDTH 8 0
BBX 8 16 0 -2
BITMAP
00
30
30
30
7c
cc
cc
cc
cc
cc
cf
cd
cf
00
00
00
ENDCHAR
STARTCHAR a1f7
ENCODING 41463
SWIDTH 903 0
DWIDTH 8 0
BBX 8 16 0 -2
BITMAP
00
60
60
30
7c
cc
cc
cc
cc
cc
cc
cc
cc
00
00
00
ENDCHAR
STARTCHAR a1f8
ENCODING 41464
SWIDTH 903 0
DWIDTH 8 0
BBX 8 16 0 -2
BITMAP
00
30
30
30
7c
cc
cc
cc
cc
cc
c0
c0
c0
00
00
00
ENDCHAR
STARTCHAR a1f9
ENCODING 41465
SWIDTH 903 0
DWIDTH 8 0
BBX 8 16 0 -2
BITMAP
00
00
18
18
30
30
60
60
c0
c0
c0
7f
03
00
00
00
ENDCHAR
STARTCHAR a1fa
ENCODING 41466
SWIDTH 903 0
DWIDTH 8 0
BBX 8 16 0 -2
BITMAP
00
00
18
18
30
30
60
60
c0
c0
7f
1b
18
00
00
00
ENDCHAR
STARTCHAR a1fb
ENCODING 41467
SWIDTH 903 0
DWIDTH 8 0
BBX 8 16 0 -2
BITMAP
00
00
18
18
30
30
60
60
c0
c6
c3
e3
7e
00
00
00
ENDCHAR
STARTCHAR a1fc
ENCODING 41468
SWIDTH 903 0
DWIDTH 8 0
BBX 8 16 0 -2
BITMAP
00
00
18
18
30
30
60
60
c7
cd
cc
cc
78
00
00
00
ENDCHAR
STARTCHAR a1fd
ENCODING 41469
SWIDTH 903 0
DWIDTH 8 0
BBX 8 16 0 -2
BITMAP
00
24
18
18
7e
db
db
db
7e
18
18
7e
c3
03
00
00
ENDCHAR
STARTCHAR a1fe
ENCODING 41470
SWIDTH 903 0
DWIDTH 8 0
BBX 8 16 0 -2
BITMAP
00
00
18
18
30
30
60
60
c0
c6
c9
79
06
00
00
00
ENDCHAR
STARTCHAR a2a1
ENCODING 41633
SWIDTH 903 0
DWIDTH 8 0
BBX 8 16 0 -2
BITMAP
00
00
3e
66
c2
c0
c0
c0
c0
c0
c0
7e
06
00
00
00
ENDCHAR
STARTCHAR a2a2
ENCODING 41634
SWIDTH 903 0
DWIDTH 8 0
BBX 8 16 0 -2
BITMAP
00
7e
7e
00
00
18
18
00
00
18
18
00
7e
7e
00
00
ENDCHAR
STARTCHAR a2a3
ENCODING 41635
SWIDTH 903 0
DWIDTH 8 0
BBX 8 16 0 -2
BITMAP
00
06
3d
65
c7
c0
c0
c0
c0
c0
c0
7e
06
00
00
00
ENDCHAR
STARTCHAR a2a4
ENCODING 41636
SWIDTH 903 0
DWIDTH 8 0
BBX 8 16 0 -2
BITMAP
00
fc
b4
30
7c
cc
cc
cc
cc
cc
cc
cc
cc
00
00
00
ENDCHAR
STARTCHAR a2a5
ENCODING 41637
SWIDTH 903 0
DWIDTH 8 0
BBX 8 16 0 -2
BITMAP
00
fc
b4
30
7c
cc
cc
cf
cf
cc
cc
cc
cc
00
00
00
ENDCHAR
STARTCHAR a2a6
ENCODING 41638
SWIDTH 903 0
DWIDTH 8 0
BBX 8 16 0 -2
BITMAP
00
fc
b4
30
7c
cc
cc
cc
cc
cc
cc
cc
cf
03
00
00
ENDCHAR
STARTCHAR a2a7
ENCODING 41639
SWIDTH 903 0
DWIDTH 8 0
BBX 8 16 0 -2
BITMAP
00
fc
b4
30
7c
cc
cc
cc
cc
cc
0c
0c
0c
00
00
00
ENDCHAR
STARTCHAR a2a8
ENCODING 41640
SWIDTH 903 0
DWIDTH 8 0
BBX 8 16 0 -2
BITMAP
00
fe
b2
18
3e
66
66
66
66
66
66
66
66
00
00
00
ENDCHAR
STARTCHAR a2a9
ENCODING 41641
SWIDTH 903 0
DWIDTH 8 0
BBX 8 16 0 -2
BITMAP
00
fc
b4
30
7c
cc
cc
cc
cc
c0
c0
c0
c0
00
00
00
ENDCHAR
STARTCHAR a2aa
ENCODING 41642
SWIDTH 903 0
DWIDTH 8 0
BBX 8 16 0 -2
BITMAP
00
18
18
18
7e
db
db
db
7e
18
18
18
18
00
00
00
ENDCHAR
STARTCHAR a2ab
ENCODING 41643
SWIDTH 903 0
DWIDTH 8 0
BBX 8 16 0 -2
BITMAP
00
18
18
18
7e
db
db
db
7e
18
1f
1b
18
00
00
00
ENDCHAR
STARTCHAR a2ac
ENCODING 41644
SWIDTH 903 0
DWIDTH 8 0
BBX 8 16 0 -2
BITMAP
00
18
18
18
7e
db
db
db
7e
18
18
0f
03
00
00
00
ENDCHAR
STARTCHAR a2ad
ENCODING 41645
SWIDTH 903 0
DWIDTH 8 0
BBX 8 16 0 -2
BITMAP
00
18
18
18
7e
db
db
db
7e
18
30
e0
c0
00
00
00
ENDCHAR
STARTCHAR a2ae
ENCODING 41646
SWIDTH 903 0
DWIDTH 8 0
BBX 8 16 0 -2
BITMAP
00
18
18
18
7e
db
db
db
7e
18
1e
1b
1b
0e
00
00
ENDCHAR
STARTCHAR a2af
ENCODING 41647
SWIDTH 903 0
DWIDTH 8 0
BBX 8 16 0 -2
BITMAP
00
60
60
18
18
7e
db
db
db
7e
18
18
18
00
00
00
ENDCHAR
STARTCHAR a2b0
ENCODING 41648
SWIDTH 903 0
DWIDTH 8 0
BBX 8 16 0 -2
BITMAP
00
18
24
24
18
7e
db
db
db
7e
18
18
18
18
00
00
ENDCHAR
STARTCHAR a2b1
ENCODING 41649
SWIDTH 903 0
DWIDTH 8 0
BBX 8 16 0 -2
BITMAP
00
18
18
18
7e
db
db
db
7e
18
18
7e
c3
03
00
00
ENDCHAR
STARTCHAR a2b2
ENCODING 41650
SWIDTH 903 0
DWIDTH 8 0
BBX 8 16 0 -2
BITMAP
00
00
78
cc
cc
cc
cc
cc
cc
cc
cc
cc
cc
00
00
00
ENDCHAR
STARTCHAR a2b3
ENCODING 41651
SWIDTH 903 0
DWIDTH 8 0
BBX 8 16 0 -2
BITMAP
00
00
78
cc
cc
cc
cc
cf
cf
cc
cc
cc
cc
00
00
00
ENDCHAR
STARTCHAR a2b4
ENCODING 41652
SWIDTH 903 0
DWIDTH 8 0
BBX 8 16 0 -2
BITMAP
00
00
78
cc
cc
cc
cc
cc
cc
cc
cc
cc
cf
03
00
00
ENDCHAR
STARTCHAR a2b5
ENCODING 41653
SWIDTH 903 0
DWIDTH 8 0
BBX 8 16 0 -2
BITMAP
00
00
78
cc
cc
cc
cc
cc
cc
0c
0c
0c
0c
00
00
00
ENDCHAR
STARTCHAR a2b6
ENCODING 41654
SWIDTH 903 0
DWIDTH 8 0
BBX 8 16 0 -2
BITMAP
00
00
78
cc
cc
cc
cc
cc
cc
cf
cd
cd
cf
00
00
00
ENDCHAR
STARTCHAR a2b7
ENCODING 41655
SWIDTH 903 0
DWIDTH 8 0
BBX 8 16 0 -2
BITMAP
00
00
1e
33
33
33
f3
f3
33
33
33
33
33
00
00
00
ENDCHAR
STARTCHAR a2b8
ENCODING 41656
SWIDTH 903 0
DWIDTH 8 0
BBX 8 16 0 -2
BITMAP
00
00
78
cc
cc
cc
cc
cc
cc
cc
c0
c0
c0
00
00
00
ENDCHAR
STARTCHAR a2b9
ENCODING 41657
SWIDTH 903 0
DWIDTH 8 0
BBX 8 16 0 -2
BITMAP
00
00
78
cc
cc
cc
cc
cc
cc
0c
0c
3c
33
03
00
00
ENDCHAR
STARTCHAR a2ba
ENCODING 41658
SWIDTH 903 0
DWIDTH 8 0
BBX 8 16 0 -2
BITMAP
00
18
18
18
18
ff
db
18
18
18
18
18
18
00
00
00
ENDCHAR
STARTCHAR a2bb
ENCODING 41659
SWIDTH 903 0
DWIDTH 8 0
BBX 8 16 0 -2
BITMAP
00
18
18
18
18
ff
db
18
18
1f
1b
18
18
00
00
00
ENDCHAR
STARTCHAR a2bc
ENCODING 41660
SWIDTH 903 0
DWIDTH 8 0
BBX 8 16 0 -2
BITMAP
00
18
18
18
18
ff
db
18
18
18
18
1f
03
00
00
00
ENDCHAR
STARTCHAR a2bd
ENCODING 41661
SWIDTH 903 0
DWIDTH 8 0
BBX 8 16 0 -2
BITMAP
00
18
18
18
ff
db
18
18
18
30
60
c0
c0
00
00
00
ENDCHAR
STARTCHAR a2be
ENCODING 41662
SWIDTH 903 0
DWIDTH 8 0
BBX 8 16 0 -2
BITMAP
00
18
18
18
18
ff
db
18
18
1e
1b
1b
0e
00
00
00
ENDCHAR
STARTCHAR a2bf
ENCODING 41663
SWIDTH 903 0
DWIDTH 8 0
BBX 8 16 0 -2
BITMAP
00
60
60
38
18
18
ff
db
18
18
18
18
18
00
00
00
ENDCHAR
STARTCHAR a2c0
ENCODING 41664
SWIDTH 903 0
DWIDTH 8 0
BBX 8 16 0 -2
BITMAP
00
18
24
24
18
18
ff
db
18
18
18
18
18
00
00
00
ENDCHAR
STARTCHAR a2c1
ENCODING 41665
SWIDTH 903 0
DWIDTH 8 0
BBX 8 16 0 -2
BITMAP
00
18
18
18
18
ff
db
18
18
18
18
7e
c3
03
00
00
ENDCHAR
STARTCHAR a2c2
ENCODING 41666
SWIDTH 903 0
DWIDTH 8 0
BBX 8 16 0 -2
BITMAP
00
00
7e
92
92
92
92
da
da
02
02
0f
09
00
00
00
ENDCHAR
STARTCHAR a2c3
ENCODING 41667
SWIDTH 903 0
DWIDTH 8 0
BBX 8 16 0 -2
BITMAP
00
c3
ff
db
18
18
ff
db
18
18
18
18
18
00
00
00
ENDCHAR
STARTCHAR a2c4
ENCODING 41668
SWIDTH 903 0
DWIDTH 8 0
BBX 8 16 0 -2
BITMAP
00
c3
ff
db
18
18
ff
db
18
1f
1b
18
18
00
00
00
ENDCHAR
STARTCHAR a2c5
ENCODING 41669
SWIDTH 903 0
DWIDTH 8 0
BBX 8 16 0 -2
BITMAP
00
c3
ff
db
18
18
ff
db
18
18
18
18
0f
03
00
00
ENDCHAR
STARTCHAR a2c6
ENCODING 41670
SWIDTH 903 0
DWIDTH 8 0
BBX 8 16 0 -2
BITMAP
00
c3
ff
db
18
18
ff
db
18
18
30
60
c0
c0
00
00
ENDCHAR
STARTCHAR a2c7
ENCODING 41671
SWIDTH 903 0
DWIDTH 8 0
BBX 8 16 0 -2
BITMAP
00
c3
ff
db
18
18
ff
db
18
18
1e
1b
1b
0e
00
00
ENDCHAR
STARTCHAR a2c8
ENCODING 41672
SWIDTH 903 0
DWIDTH 8 0
BBX 8 16 0 -2
BITMAP
00
c6
fe
30
30
18
18
ff
db
18
18
18
18
18
00
00
ENDCHAR
STARTCHAR a2c9
ENCODING 41673
SWIDTH 903 0
DWIDTH 8 0
BBX 8 16 0 -2
BITMAP
00
db
e7
24
18
18
18
ff
db
18
18
18
18
18
00
00
ENDCHAR
STARTCHAR a2ca
ENCODING 41674
SWIDTH 903 0
DWIDTH 8 0
BBX 8 16 0 -2
BITMAP
00
c3
ff
db
18
18
ff
db
18
18
18
7f
c3
03
00
00
ENDCHAR
STARTCHAR a2cb
ENCODING 41675
SWIDTH 903 0
DWIDTH 8 0
BBX 8 16 0 -2
BITMAP
00
60
60
60
60
38
0c
0c
18
18
30
30
30
00
00
00
ENDCHAR
STARTCHAR a2cc
ENCODING 41676
SWIDTH 903 0
DWIDTH 8 0
BBX 8 16 0 -2
BITMAP
00
c0
c0
c0
c0
70
18
1e
37
30
60
60
60
00
00
00
ENDCHAR
STARTCHAR a2cd
ENCODING 41677
SWIDTH 903 0
DWIDTH 8 0
BBX 8 16 0 -2
BITMAP
00
c0
c0
c0
c0
70
18
18
30
30
60
7c
0e
00
00
00
ENDCHAR
STARTCHAR a2ce
ENCODING 41678
SWIDTH 903 0
DWIDTH 8 0
BBX 8 16 0 -2
BITMAP
00
3c
66
c6
c0
c0
c0
60
3c
0c
0c
0c
0c
00
00
00
ENDCHAR
STARTCHAR a2cf
ENCODING 41679
SWIDTH 903 0
DWIDTH 8 0
BBX 8 16 0 -2
BITMAP
00
c0
c0
c0
c0
70
18
18
30
30
78
6c
38
00
00
00
ENDCHAR
STARTCHAR a2d0
ENCODING 41680
SWIDTH 903 0
DWIDTH 8 0
BBX 8 16 0 -2
BITMAP
00
78
cc
0c
18
30
38
0c
0c
18
30
30
30
00
00
00
ENDCHAR
STARTCHAR a2d1
ENCODING 41681
SWIDTH 903 0
DWIDTH 8 0
BBX 8 16 0 -2
BITMAP
00
06
3d
65
c3
c0
c0
60
3c
06
06
06
06
00
00
00
ENDCHAR
STARTCHAR a2d2
ENCODING 41682
SWIDTH 903 0
DWIDTH 8 0
BBX 8 16 0 -2
BITMAP
00
00
3e
66
c3
c0
c0
60
38
0c
0c
0c
37
23
00
00
ENDCHAR
STARTCHAR a2d3
ENCODING 41683
SWIDTH 903 0
DWIDTH 8 0
BBX 8 16 0 -2
BITMAP
00
c6
fe
30
30
38
0c
0c
18
18
30
30
30
00
00
00
ENDCHAR
STARTCHAR a2d4
ENCODING 41684
SWIDTH 903 0
DWIDTH 8 0
BBX 8 16 0 -2
BITMAP
00
c6
fe
30
30
38
0c
0f
1b
18
30
30
30
00
00
00
ENDCHAR
STARTCHAR a2d5
ENCODING 41685
SWIDTH 903 0
DWIDTH 8 0
BBX 8 16 0 -2
BITMAP
00
c6
fe
30
30
38
0c
0c
18
18
30
3e
07
00
00
00
ENDCHAR
STARTCHAR a2d6
ENCODING 41686
SWIDTH 903 0
DWIDTH 8 0
BBX 8 16 0 -2
BITMAP
00
c6
fe
18
66
c6
c0
c0
60
3c
0c
0c
0c
00
00
00
ENDCHAR
STARTCHAR a2d7
ENCODING 41687
SWIDTH 903 0
DWIDTH 8 0
BBX 8 16 0 -2
BITMAP
84
cc
30
f8
8c
18
30
0c
0c
18
18
30
30
00
00
00
ENDCHAR
STARTCHAR a2d8
ENCODING 41688
SWIDTH 903 0
DWIDTH 8 0
BBX 8 16 0 -2
BITMAP
c6
fe
30
37
7d
c5
c7
c0
c0
7c
0c
0c
0c
00
00
00
ENDCHAR
STARTCHAR a2d9
ENCODING 41689
SWIDTH 903 0
DWIDTH 8 0
BBX 8 16 0 -2
BITMAP
00
c0
c0
f0
30
60
f8
cc
cc
cc
cc
cc
cc
00
00
00
ENDCHAR
STARTCHAR a2da
ENCODING 41690
SWIDTH 903 0
DWIDTH 8 0
BBX 8 16 0 -2
BITMAP
00
c0
c0
f0
30
60
f8
cc
cf
cd
cc
cc
cc
00
00
00
ENDCHAR
STARTCHAR a2db
ENCODING 41691
SWIDTH 903 0
DWIDTH 8 0
BBX 8 16 0 -2
BITMAP
00
c0
c0
f0
30
60
f8
cc
cc
cc
cc
cc
cf
03
00
00
ENDCHAR
STARTCHAR a2dc
ENCODING 41692
SWIDTH 903 0
DWIDTH 8 0
BBX 8 16 0 -2
BITMAP
00
c0
c0
f0
30
60
f8
cc
cc
cc
cf
cd
cf
00
00
00
ENDCHAR
STARTCHAR a2dd
ENCODING 41693
SWIDTH 903 0
DWIDTH 8 0
BBX 8 16 0 -2
BITMAP
00
c0
c0
60
60
30
60
f8
cc
cc
cc
cc
cc
00
00
00
ENDCHAR
STARTCHAR a2de
ENCODING 41694
SWIDTH 903 0
DWIDTH 8 0
BBX 8 16 0 -2
BITMAP
00
c0
c0
f0
30
60
f8
cc
cc
cc
cc
c0
c0
00
00
00
ENDCHAR
STARTCHAR a2df
ENCODING 41695
SWIDTH 903 0
DWIDTH 8 0
BBX 8 16 0 -2
BITMAP
00
c0
c0
c0
78
4c
cc
cc
cc
cc
cc
cc
cc
00
00
00
ENDCHAR
STARTCHAR a2e0
ENCODING 41696
SWIDTH 903 0
DWIDTH 8 0
BBX 8 16 0 -2
BITMAP
00
c0
c0
c0
78
4c
cc
cc
cf
cd
cc
cc
cc
00
00
00
ENDCHAR
STARTCHAR a2e1
ENCODING 41697
SWIDTH 903 0
DWIDTH 8 0
BBX 8 16 0 -2
BITMAP
00
c0
c0
c0
78
4c
cc
cc
cc
cc
cc
cc
cf
03
00
00
ENDCHAR
STARTCHAR a2e2
ENCODING 41698
SWIDTH 903 0
DWIDTH 8 0
BBX 8 16 0 -2
BITMAP
00
c0
c0
c0
78
4c
cc
cc
cc
cc
0c
0c
0c
00
00
00
ENDCHAR
STARTCHAR a2e3
ENCODING 41699
SWIDTH 903 0
DWIDTH 8 0
BBX 8 16 0 -2
BITMAP
00
c0
c0
c0
78
4c
cc
cc
cc
cc
cf
cd
cf
00
00
00
ENDCHAR
STARTCHAR a2e4
ENCODING 41700
SWIDTH 903 0
DWIDTH 8 0
BBX 8 16 0 -2
BITMAP
00
c0
c0
c0
7c
c6
c6
66
66
c6
c6
c6
c6
00
00
00
ENDCHAR
STARTCHAR a2e5
ENCODING 41701
SWIDTH 903 0
DWIDTH 8 0
BBX 8 16 0 -2
BITMAP
00
c0
c0
c0
78
4c
cc
cc
cc
cc
c0
c0
c0
00
00
00
ENDCHAR
STARTCHAR a2e6
ENCODING 41702
SWIDTH 903 0
DWIDTH 8 0
BBX 8 16 0 -2
BITMAP
00
c0
c0
c0
78
4c
cc
cc
cc
0c
0c
37
63
00
00
00
ENDCHAR
STARTCHAR a2e7
ENCODING 41703
SWIDTH 903 0
DWIDTH 8 0
BBX 8 16 0 -2
BITMAP
00
00
1e
7b
db
db
db
db
db
de
d8
60
00
00
00
00
ENDCHAR
STARTCHAR a2e8
ENCODING 41704
SWIDTH 903 0
DWIDTH 8 0
BBX 8 16 0 -2
BITMAP
00
1e
7b
db
db
db
de
78
18
18
18
1f
03
00
00
00
ENDCHAR
STARTCHAR a2e9
ENCODING 41705
SWIDTH 903 0
DWIDTH 8 0
BBX 8 16 0 -2
BITMAP
00
1e
7b
db
db
db
de
78
18
18
18
18
18
00
00
00
ENDCHAR
STARTCHAR a2ea
ENCODING 41706
SWIDTH 903 0
DWIDTH 8 0
BBX 8 16 0 -2
BITMAP
00
1e
7b
db
db
db
de
78
18
1e
1b
1b
1e
00
00
00
ENDCHAR
STARTCHAR a2eb
ENCODING 41707
SWIDTH 903 0
DWIDTH 8 0
BBX 8 16 0 -2
BITMAP
00
00
18
74
b4
b4
b7
b5
b4
b4
b8
60
00
00
00
00
ENDCHAR
STARTCHAR a2ec
ENCODING 41708
SWIDTH 903 0
DWIDTH 8 0
BBX 8 16 0 -2
BITMAP
00
7e
db
db
db
db
7e
18
30
60
c0
c0
c0
00
00
00
ENDCHAR
STARTCHAR a2ed
ENCODING 41709
SWIDTH 903 0
DWIDTH 8 0
BBX 8 16 0 -2
BITMAP
00
00
cc
cc
cc
cc
fc
cc
cc
cc
cc
cc
cc
00
00
00
ENDCHAR
STARTCHAR a2ee
ENCODING 41710
SWIDTH 903 0
DWIDTH 8 0
BBX 8 16 0 -2
BITMAP
00
00
cc
cc
cc
cc
fc
cf
cd
cc
cc
cc
cc
00
00
00
ENDCHAR
STARTCHAR a2ef
ENCODING 41711
SWIDTH 903 0
DWIDTH 8 0
BBX 8 16 0 -2
BITMAP
00
00
cc
cc
cc
cc
fc
cc
cc
cc
cc
cc
cf
03
00
00
ENDCHAR
STARTCHAR a2f0
ENCODING 41712
SWIDTH 903 0
DWIDTH 8 0
BBX 8 16 0 -2
BITMAP
00
00
cc
cc
cc
cc
fc
cc
cc
cc
0c
0c
0c
00
00
00
ENDCHAR
STARTCHAR a2f1
ENCODING 41713
SWIDTH 903 0
DWIDTH 8 0
BBX 8 16 0 -2
BITMAP
00
00
cc
cc
cc
cc
fc
cc
cc
cc
cf
cd
cf
00
00
00
ENDCHAR
STARTCHAR a2f2
ENCODING 41714
SWIDTH 903 0
DWIDTH 8 0
BBX 8 16 0 -2
BITMAP
00
00
f3
f3
33
33
3f
33
33
33
33
33
33
00
00
00
ENDCHAR
STARTCHAR a2f3
ENCODING 41715
SWIDTH 903 0
DWIDTH 8 0
BBX 8 16 0 -2
BITMAP
00
00
cc
cc
cc
cc
fc
cc
cc
cc
c0
c0
c0
00
00
00
ENDCHAR
STARTCHAR a2f4
ENCODING 41716
SWIDTH 903 0
DWIDTH 8 0
BBX 8 16 0 -2
BITMAP
00
00
cc
cc
cc
fc
cc
cc
cc
0c
0c
37
33
00
00
00
ENDCHAR
STARTCHAR a2f5
ENCODING 41717
SWIDTH 903 0
DWIDTH 8 0
BBX 8 16 0 -2
BITMAP
00
00
ee
6c
6c
6c
7c
6c
6c
6c
6c
6c
6c
00
00
00
ENDCHAR
STARTCHAR a2f6
ENCODING 41718
SWIDTH 903 0
DWIDTH 8 0
BBX 8 16 0 -2
BITMAP
00
00
ef
6c
6c
6c
7c
6f
6d
6c
6c
6c
6c
00
00
00
ENDCHAR
STARTCHAR a2f7
ENCODING 41719
SWIDTH 903 0
DWIDTH 8 0
BBX 8 16 0 -2
BITMAP
00
00
ee
6c
6c
6c
7c
6c
6c
6c
0c
0c
0c
00
00
00
ENDCHAR
STARTCHAR a2f8
ENCODING 41720
SWIDTH 903 0
DWIDTH 8 0
BBX 8 16 0 -2
BITMAP
00
00
ee
6c
6c
6c
7c
6c
6c
6c
6f
6d
6f
00
00
00
ENDCHAR
STARTCHAR a2f9
ENCODING 41721
SWIDTH 903 0
DWIDTH 8 0
BBX 8 16 0 -2
BITMAP
00
e0
40
f7
36
36
3e
36
36
36
36
36
36
00
00
00
ENDCHAR
STARTCHAR a2fa
ENCODING 41722
SWIDTH 903 0
DWIDTH 8 0
BBX 8 16 0 -2
BITMAP
00
00
ee
6c
6c
6c
7c
6c
6c
6c
60
60
60
00
00
00
ENDCHAR
STARTCHAR a2fb
ENCODING 41723
SWIDTH 903 0
DWIDTH 8 0
BBX 8 16 0 -2
BITMAP
00
38
6c
cc
cc
cc
f8
60
60
30
30
30
30
00
00
00
ENDCHAR
STARTCHAR a2fc
ENCODING 41724
SWIDTH 903 0
DWIDTH 8 0
BBX 8 16 0 -2
BITMAP
00
38
6c
cc
cc
cc
f8
60
60
3e
36
30
30
00
00
00
ENDCHAR
STARTCHAR a2fd
ENCODING 41725
SWIDTH 903 0
DWIDTH 8 0
BBX 8 16 0 -2
BITMAP
00
1c
36
66
66
7c
30
18
0c
1c
30
60
60
00
00
00
ENDCHAR
STARTCHAR a2fe
ENCODING 41726
SWIDTH 903 0
DWIDTH 8 0
BBX 8 16 0 -2
BITMAP
00
38
6c
cc
cc
d8
f0
63
33
1e
60
c0
c0
00
00
00
ENDCHAR
STARTCHAR a3a1
ENCODING 41889
SWIDTH 903 0
DWIDTH 8 0
BBX 8 16 0 -2
BITMAP
00
38
6c
cf
cd
cc
f8
60
60
30
30
30
30
00
00
00
ENDCHAR
STARTCHAR a3a2
ENCODING 41890
SWIDTH 903 0
DWIDTH 8 0
BBX 8 16 0 -2
BITMAP
00
38
6c
cc
cc
cc
cc
f8
60
3c
cc
cc
cc
00
00
00
ENDCHAR
STARTCHAR a3a3
ENCODING 41891
SWIDTH 903 0
DWIDTH 8 0
BBX 8 16 0 -2
BITMAP
00
38
6c
cc
cc
cc
cc
f8
60
3c
cf
cd
cc
00
00
00
ENDCHAR
STARTCHAR a3a4
ENCODING 41892
SWIDTH 903 0
DWIDTH 8 0
BBX 8 16 0 -2
BITMAP
00
38
6c
cc
cc
cc
cc
f8
60
3c
cc
cc
cf
03
00
00
ENDCHAR
STARTCHAR a3a5
ENCODING 41893
SWIDTH 903 0
DWIDTH 8 0
BBX 8 16 0 -2
BITMAP
00
38
6c
cc
cc
cc
cc
f8
60
3c
cc
cc
0c
00
00
00
ENDCHAR
STARTCHAR a3a6
ENCODING 41894
SWIDTH 903 0
DWIDTH 8 0
BBX 8 16 0 -2
BITMAP
00
38
6c
cc
cc
cc
cc
f8
60
3c
cf
cd
cf
00
00
00
ENDCHAR
STARTCHAR a3a7
ENCODING 41895
SWIDTH 903 0
DWIDTH 8 0
BBX 8 16 0 -2
BITMAP
00
38
6c
cc
cf
cd
cc
f8
60
3c
cc
cc
cc
00
00
00
ENDCHAR
STARTCHAR a3a8
ENCODING 41896
SWIDTH 903 0
DWIDTH 8 0
BBX 8 16 0 -2
BITMAP
00
38
6c
cc
cc
cc
cc
f8
60
3c
ce
c6
c0
00
00
00
ENDCHAR
STARTCHAR a3a9
ENCODING 41897
SWIDTH 903 0
DWIDTH 8 0
BBX 8 16 0 -2
BITMAP
00
38
6c
cc
cc
cc
cc
f8
60
3c
cc
8c
33
33
00
00
ENDCHAR
STARTCHAR a3aa
ENCODING 41898
SWIDTH 903 0
DWIDTH 8 0
BBX 8 16 0 -2
BITMAP
c6
fe
30
78
cc
cc
cc
f8
60
3c
cc
cc
cc
00
00
00
ENDCHAR
STARTCHAR a3ab
ENCODING 41899
SWIDTH 903 0
DWIDTH 8 0
BBX 8 16 0 -2
BITMAP
c6
fe
30
78
cc
cc
cc
f8
60
3c
cf
cd
cc
00
00
00
ENDCHAR
STARTCHAR a3ac
ENCODING 41900
SWIDTH 903 0
DWIDTH 8 0
BBX 8 16 0 -2
BITMAP
c6
fe
30
78
cc
cc
cc
f8
60
3c
cc
cc
cf
03
00
00
ENDCHAR
STARTCHAR a3ad
ENCODING 41901
SWIDTH 903 0
DWIDTH 8 0
BBX 8 16 0 -2
BITMAP
c6
fe
30
78
cc
cc
cc
f8
60
3c
cc
cc
0c
00
00
00
ENDCHAR
STARTCHAR a3ae
ENCODING 41902
SWIDTH 903 0
DWIDTH 8 0
BBX 8 16 0 -2
BITMAP
c6
fe
30
78
cc
cc
cc
f8
60
3c
cf
cd
cf
00
00
00
ENDCHAR
STARTCHAR a3af
ENCODING 41903
SWIDTH 903 0
DWIDTH 8 0
BBX 8 16 0 -2
BITMAP
c6
fe
30
78
cc
cf
cd
f8
60
3c
cc
cc
cc
00
00
00
ENDCHAR
STARTCHAR a3b0
ENCODING 41904
SWIDTH 903 0
DWIDTH 8 0
BBX 8 16 0 -2
BITMAP
c6
fe
30
78
cc
cc
cc
f8
60
3c
cc
c0
c0
00
00
00
ENDCHAR
STARTCHAR a3b1
ENCODING 41905
SWIDTH 903 0
DWIDTH 8 0
BBX 8 16 0 -2
BITMAP
00
78
cc
cc
0c
0c
18
18
18
30
30
30
30
00
00
00
ENDCHAR
STARTCHAR a3b2
ENCODING 41906
SWIDTH 903 0
DWIDTH 8 0
BBX 8 16 0 -2
BITMAP
00
78
cc
cc
0c
0c
1f
19
18
30
30
30
30
00
00
00
ENDCHAR
STARTCHAR a3b3
ENCODING 41907
SWIDTH 903 0
DWIDTH 8 0
BBX 8 16 0 -2
BITMAP
00
78
cc
cc
0c
0c
18
18
18
30
30
36
3e
06
00
00
ENDCHAR
STARTCHAR a3b4
ENCODING 41908
SWIDTH 903 0
DWIDTH 8 0
BBX 8 16 0 -2
BITMAP
00
3c
66
66
06
06
06
06
06
1c
f0
c0
c0
00
00
00
ENDCHAR
STARTCHAR a3b5
ENCODING 41909
SWIDTH 903 0
DWIDTH 8 0
BBX 8 16 0 -2
BITMAP
00
78
cc
cc
0c
0c
18
18
18
30
3c
34
3c
00
00
00
ENDCHAR
STARTCHAR a3b6
ENCODING 41910
SWIDTH 903 0
DWIDTH 8 0
BBX 8 16 0 -2
BITMAP
00
7c
e6
a6
e6
06
0c
0c
0c
18
18
18
18
00
00
00
ENDCHAR
STARTCHAR a3b7
ENCODING 41911
SWIDTH 903 0
DWIDTH 8 0
BBX 8 16 0 -2
BITMAP
00
30
30
78
cc
cc
0c
18
18
18
30
30
30
00
00
00
ENDCHAR
STARTCHAR a3b8
ENCODING 41912
SWIDTH 903 0
DWIDTH 8 0
BBX 8 16 0 -2
BITMAP
00
00
78
cc
cc
0c
18
18
18
30
30
30
fc
84
00
00
ENDCHAR
STARTCHAR a3b9
ENCODING 41913
SWIDTH 903 0
DWIDTH 8 0
BBX 8 16 0 -2
BITMAP
00
00
38
68
a8
a8
a8
a8
a8
a8
a8
a8
a8
00
00
00
ENDCHAR
STARTCHAR a3ba
ENCODING 41914
SWIDTH 903 0
DWIDTH 8 0
BBX 8 16 0 -2
BITMAP
00
00
38
68
a8
a8
a8
ae
aa
a8
a8
a8
a8
00
00
00
ENDCHAR
STARTCHAR a3bb
ENCODING 41915
SWIDTH 903 0
DWIDTH 8 0
BBX 8 16 0 -2
BITMAP
00
00
38
68
a8
a8
a8
a8
a8
a8
a8
a8
ae
02
00
00
ENDCHAR
STARTCHAR a3bc
ENCODING 41916
SWIDTH 903 0
DWIDTH 8 0
BBX 8 16 0 -2
BITMAP
00
00
38
68
a8
a8
a8
a8
a8
08
08
08
08
00
00
00
ENDCHAR
STARTCHAR a3bd
ENCODING 41917
SWIDTH 903 0
DWIDTH 8 0
BBX 8 16 0 -2
BITMAP
00
00
38
68
a8
a8
a8
a8
a8
ae
aa
aa
ae
00
00
00
ENDCHAR
STARTCHAR a3be
ENCODING 41918
SWIDTH 903 0
DWIDTH 8 0
BBX 8 16 0 -2
BITMAP
00
00
7c
92
92
92
92
18
08
08
08
08
08
00
00
00
ENDCHAR
STARTCHAR a3bf
ENCODING 41919
SWIDTH 903 0
DWIDTH 8 0
BBX 8 16 0 -2
BITMAP
00
00
38
68
a8
a8
a8
a8
a8
80
80
80
80
00
00
00
ENDCHAR
STARTCHAR a3c0
ENCODING 41920
SWIDTH 903 0
DWIDTH 8 0
BBX 8 16 0 -2
BITMAP
00
00
3e
72
92
92
92
92
92
92
92
da
da
00
00
00
ENDCHAR
STARTCHAR a3c1
ENCODING 41921
SWIDTH 903 0
DWIDTH 8 0
BBX 8 16 0 -2
BITMAP
00
00
3e
72
92
92
92
93
92
92
92
da
da
00
00
00
ENDCHAR
STARTCHAR a3c2
ENCODING 41922
SWIDTH 903 0
DWIDTH 8 0
BBX 8 16 0 -2
BITMAP
00
00
3e
72
92
92
92
92
92
92
92
da
db
00
00
00
ENDCHAR
STARTCHAR a3c3
ENCODING 41923
SWIDTH 903 0
DWIDTH 8 0
BBX 8 16 0 -2
BITMAP
00
00
7e
92
92
92
92
da
da
02
02
02
02
00
00
00
ENDCHAR
STARTCHAR a3c4
ENCODING 41924
SWIDTH 903 0
DWIDTH 8 0
BBX 8 16 0 -2
BITMAP
00
00
7c
92
92
d3
d3
10
08
08
08
0c
0c
00
00
00
ENDCHAR
STARTCHAR a3c5
ENCODING 41925
SWIDTH 903 0
DWIDTH 8 0
BBX 8 16 0 -2
BITMAP
00
00
3e
72
92
92
9b
9b
80
80
80
c0
c0
00
00
00
ENDCHAR
STARTCHAR a3c6
ENCODING 41926
SWIDTH 903 0
DWIDTH 8 0
BBX 8 16 0 -2
BITMAP
00
30
30
78
cc
cc
cc
78
30
78
cc
cc
cf
03
00
00
ENDCHAR
STARTCHAR a3c7
ENCODING 41927
SWIDTH 903 0
DWIDTH 8 0
BBX 8 16 0 -2
BITMAP
00
30
30
78
cc
cc
cc
78
30
78
cc
cc
0c
00
00
00
ENDCHAR
STARTCHAR a3c8
ENCODING 41928
SWIDTH 903 0
DWIDTH 8 0
BBX 8 16 0 -2
BITMAP
00
30
30
78
cc
cc
cc
78
30
7c
cf
cd
cf
00
00
00
ENDCHAR
STARTCHAR a3c9
ENCODING 41929
SWIDTH 903 0
DWIDTH 8 0
BBX 8 16 0 -2
BITMAP
00
30
30
78
cc
cf
cd
78
30
78
cc
cc
cc
00
00
00
ENDCHAR
STARTCHAR a3ca
ENCODING 41930
SWIDTH 903 0
DWIDTH 8 0
BBX 8 16 0 -2
BITMAP
00
30
30
78
cc
cc
cc
78
30
78
cc
cc
c0
00
00
00
ENDCHAR
STARTCHAR a3cb
ENCODING 41931
SWIDTH 903 0
DWIDTH 8 0
BBX 8 16 0 -2
BITMAP
00
18
7c
6c
cc
cc
fc
cc
cc
cc
cc
d8
70
00
00
00
ENDCHAR
STARTCHAR a3cc
ENCODING 41932
SWIDTH 903 0
DWIDTH 8 0
BBX 8 16 0 -2
BITMAP
00
18
7c
6c
cc
cc
fc
cf
cd
cc
cc
d8
70
00
00
00
ENDCHAR
STARTCHAR a3cd
ENCODING 41933
SWIDTH 903 0
DWIDTH 8 0
BBX 8 16 0 -2
BITMAP
00
78
cc
cc
fc
cc
7c
0c
18
18
30
3e
06
00
00
00
ENDCHAR
STARTCHAR a3ce
ENCODING 41934
SWIDTH 903 0
DWIDTH 8 0
BBX 8 16 0 -2
BITMAP
00
78
cc
cc
fc
cc
7c
0c
18
18
18
18
18
00
00
00
ENDCHAR
STARTCHAR a3cf
ENCODING 41935
SWIDTH 903 0
DWIDTH 8 0
BBX 8 16 0 -2
BITMAP
00
78
cc
cc
fc
cc
7c
0c
18
30
3e
36
3e
00
00
00
ENDCHAR
STARTCHAR a3d0
ENCODING 41936
SWIDTH 903 0
DWIDTH 8 0
BBX 8 16 0 -2
BITMAP
00
30
30
30
78
6c
cc
cc
fc
cc
cc
d8
70
00
00
00
ENDCHAR
STARTCHAR a3d1
ENCODING 41937
SWIDTH 903 0
DWIDTH 8 0
BBX 8 16 0 -2
BITMAP
00
78
cc
cc
fc
cc
7c
18
30
60
c0
c0
c0
00
00
00
ENDCHAR
STARTCHAR a3d2
ENCODING 41938
SWIDTH 903 0
DWIDTH 8 0
BBX 8 16 0 -2
BITMAP
00
18
18
18
30
30
60
60
f0
d8
d8
ff
63
00
00
00
ENDCHAR
STARTCHAR a3d3
ENCODING 41939
SWIDTH 903 0
DWIDTH 8 0
BBX 8 16 0 -2
BITMAP
00
18
18
18
30
60
70
d8
d8
ff
33
60
60
00
00
00
ENDCHAR
STARTCHAR a3d4
ENCODING 41940
SWIDTH 903 0
DWIDTH 8 0
BBX 8 16 0 -2
BITMAP
00
18
18
18
30
30
60
60
f0
db
db
ff
76
00
00
00
ENDCHAR
STARTCHAR a3d5
ENCODING 41941
SWIDTH 903 0
DWIDTH 8 0
BBX 8 16 0 -2
BITMAP
00
18
18
18
30
60
70
d8
d8
ff
1b
18
18
00
00
00
ENDCHAR
STARTCHAR a3d6
ENCODING 41942
SWIDTH 903 0
DWIDTH 8 0
BBX 8 16 0 -2
BITMAP
00
18
18
18
30
30
60
70
d8
d8
d7
fd
67
00
00
00
ENDCHAR
STARTCHAR a3d7
ENCODING 41943
SWIDTH 903 0
DWIDTH 8 0
BBX 8 16 0 -2
BITMAP
00
00
3e
66
c0
c0
f0
d8
d8
df
7b
18
18
00
00
00
ENDCHAR
STARTCHAR a3d8
ENCODING 41944
SWIDTH 903 0
DWIDTH 8 0
BBX 8 16 0 -2
BITMAP
00
00
3f
65
c5
c7
f0
d8
d8
d8
d8
ff
73
00
00
00
ENDCHAR
STARTCHAR a3d9
ENCODING 41945
SWIDTH 903 0
DWIDTH 8 0
BBX 8 16 0 -2
BITMAP
00
c3
ff
18
30
60
70
d8
d8
ff
1b
18
18
00
00
00
ENDCHAR
STARTCHAR a3da
ENCODING 41946
SWIDTH 903 0
DWIDTH 8 0
BBX 8 16 0 -2
BITMAP
00
ff
db
18
18
18
18
18
18
18
18
18
18
00
00
00
ENDCHAR
STARTCHAR a3db
ENCODING 41947
SWIDTH 903 0
DWIDTH 8 0
BBX 8 16 0 -2
BITMAP
00
ff
db
18
18
18
18
1f
1b
18
18
18
18
00
00
00
ENDCHAR
STARTCHAR a3dc
ENCODING 41948
SWIDTH 903 0
DWIDTH 8 0
BBX 8 16 0 -2
BITMAP
00
ff
db
18
18
18
18
18
18
18
18
1f
03
00
00
00
ENDCHAR
STARTCHAR a3dd
ENCODING 41949
SWIDTH 903 0
DWIDTH 8 0
BBX 8 16 0 -2
BITMAP
00
ff
db
18
18
18
18
18
30
60
c0
c0
c0
00
00
00
ENDCHAR
STARTCHAR a3de
ENCODING 41950
SWIDTH 903 0
DWIDTH 8 0
BBX 8 16 0 -2
BITMAP
00
ff
db
18
18
18
18
18
18
1e
1b
1b
1e
00
00
00
ENDCHAR
STARTCHAR a3df
ENCODING 41951
SWIDTH 903 0
DWIDTH 8 0
BBX 8 16 0 -2
BITMAP
00
ff
db
18
18
1c
0c
0c
0c
0c
0c
0c
0c
00
00
00
ENDCHAR
STARTCHAR a3e0
ENCODING 41952
SWIDTH 903 0
DWIDTH 8 0
BBX 8 16 0 -2
BITMAP
00
ff
db
18
18
30
30
60
60
c0
c0
c0
c0
00
00
00
ENDCHAR
STARTCHAR a3e1
ENCODING 41953
SWIDTH 903 0
DWIDTH 8 0
BBX 8 16 0 -2
BITMAP
84
fc
00
78
cc
cc
cc
cc
cc
cc
cf
cd
cf
00
00
00
ENDCHAR
STARTCHAR a3e2
ENCODING 41954
SWIDTH 903 0
DWIDTH 8 0
BBX 8 16 0 -2
BITMAP
21
3f
00
1e
33
33
33
f3
b3
33
33
33
33
00
00
00
ENDCHAR
STARTCHAR a3e3
ENCODING 41955
SWIDTH 903 0
DWIDTH 8 0
BBX 8 16 0 -2
BITMAP
84
fc
00
78
cc
cc
cc
cc
cc
cc
c0
c0
c0
00
00
00
ENDCHAR
STARTCHAR a3e4
ENCODING 41956
SWIDTH 903 0
DWIDTH 8 0
BBX 8 16 0 -2
BITMAP
00
00
00
00
00
00
00
00
00
00
00
00
00
00
00
00
ENDCHAR
STARTCHAR a3e5
ENCODING 41957
SWIDTH 903 0
DWIDTH 8 0
BBX 8 16 0 -2
BITMAP
00
00
00
00
00
00
00
00
00
00
00
00
00
00
00
00
ENDCHAR
ENDFONT
